<?xml version="1.0" encoding="UTF-8"?>
<svg width="78.308mm" height="24.234mm" version="1.1" viewBox="0 0 78.308395 24.234179" xmlns="http://www.w3.org/2000/svg">
 <g transform="translate(-65.846 -136.38)">
  <g stroke-width=".26458" fill="#FFF" aria-label="xmc">
   <path d="m90.006 160.05h-10.964v-4.6137h2.034l-3.1502-4.8369-3.1006 4.8369h1.8852v4.6137h-10.864v-4.6137h3.3486l5.1842-7.1189-4.9361-6.7469h-3.1006v-4.6385h10.418v4.6385h-1.6371l2.8029 4.4648 2.8525-4.4648h-1.8355v-4.6385h10.517v4.6385h-3.0014l-4.9361 6.7469 5.1842 7.1189h3.299z"/>
   <path d="m117.24 160.05h-5.1346v-15.85q0-1.6371-0.34726-2.406-0.32246-0.79375-1.1658-0.79375-1.5379 0-1.9596 1.7363-0.39688 1.7115-0.39688 5.0106v12.303h-5.1346v-15.85q0-1.6371-0.34726-2.406-0.34727-0.79375-1.2154-0.79375-1.5131 0-1.91 1.7363-0.37207 1.7115-0.37207 5.0106v12.303h-5.1346v-23.118h5.1842v3.3486q0.5457-1.91 1.6123-2.9022 1.0666-0.99219 2.8525-0.99219 1.4883 0 2.4805 0.91778 1.017 0.89297 1.3891 2.4805 0.86817-1.7363 1.7859-2.5549 0.94258-0.84336 2.8773-0.84336 2.3812 0 3.6463 1.7611 1.2898 1.7363 1.2898 5.2834z"/>
   <path d="m144.15 156.75q-2.2324 2.2324-4.7129 3.051-2.4557 0.81855-5.333 0.81855-2.9022 0-5.2834-0.86816-2.3564-0.86817-4.0184-2.4309-1.6371-1.5875-2.5301-3.8199-0.86817-2.2324-0.86817-4.9857 0-2.6293 0.86817-4.8617 0.89297-2.2572 2.3812-3.8447 1.5131-1.6123 3.5471-2.5053 2.034-0.91778 4.316-0.91778 2.3812 0 4.1424 0.99219 1.7611 0.99219 2.5549 2.9022v-3.3486h4.5889v10.765h-4.5889q0-3.051-1.6867-4.8617-1.6619-1.8355-4.3408-1.8355-1.0666 0-2.2572 0.44648-1.1658 0.42168-2.158 1.3394-0.96739 0.91778-1.6123 2.3316-0.64492 1.4139-0.64492 3.3982 0 1.9348 0.62012 3.3486 0.62011 1.3891 1.6123 2.3068 1.017 0.89297 2.3812 1.3643 1.3891 0.44649 2.8525 0.44649 2.5053 0 4.3408-0.76895 1.8604-0.79375 3.1998-2.0836z"/>
  </g>
 </g>
</svg>
